<svg width="17" height="21" viewBox="0 0 17 21" fill="none" xmlns="http://www.w3.org/2000/svg">
<path d="M8.46582 10.4062C8.78223 10.4062 9.0459 10.3008 9.24805 10.0898L12.8428 6.45117C13.0889 6.20508 13.2119 5.92383 13.2119 5.59863C13.2119 5.29102 13.0801 4.9834 12.8428 4.74609L9.25684 1.09863C9.0459 0.870117 8.78223 0.764648 8.46582 0.764648C7.83301 0.764648 7.33203 1.27441 7.33203 1.9248C7.33203 2.24121 7.45508 2.47852 7.64844 2.68066L9.32715 4.32422C9.05469 4.28906 8.78223 4.28027 8.51855 4.28027C4.08887 4.28027 0.573242 7.80469 0.573242 12.252C0.573242 16.6904 4.15918 20.2852 8.59766 20.2852C13.0361 20.2852 16.6221 16.6904 16.6221 12.252C16.6221 11.54 16.1211 11.0479 15.4268 11.0479C14.75 11.0479 14.2754 11.54 14.2754 12.252C14.2754 15.3984 11.7441 17.9297 8.59766 17.9297C5.45117 17.9297 2.92871 15.3984 2.92871 12.252C2.92871 9.03516 5.38086 6.53027 8.51855 6.53027C8.91406 6.53027 9.27441 6.54785 9.6084 6.58301L7.64844 8.5166C7.45508 8.71875 7.33203 8.94727 7.33203 9.26367C7.33203 9.90527 7.83301 10.4062 8.46582 10.4062Z" fill="#4A4A4A"/>
</svg>
