<svg width="20" height="15" viewBox="0 0 20 15" fill="none" xmlns="http://www.w3.org/2000/svg">
<path d="M1.74414 3.60254C2.57031 3.60254 3.24707 2.92578 3.24707 2.09961C3.24707 1.27344 2.57031 0.587891 1.74414 0.587891C0.917969 0.587891 0.241211 1.27344 0.241211 2.09961C0.241211 2.92578 0.917969 3.60254 1.74414 3.60254ZM6.32324 3.18945H18.127C18.7334 3.18945 19.2168 2.70605 19.2168 2.09961C19.2168 1.49316 18.7422 1.00977 18.127 1.00977H6.32324C5.7168 1.00977 5.2334 1.48438 5.2334 2.09961C5.2334 2.70605 5.70801 3.18945 6.32324 3.18945ZM1.74414 9.16602C2.57031 9.16602 3.24707 8.48926 3.24707 7.66309C3.24707 6.83691 2.57031 6.16016 1.74414 6.16016C0.917969 6.16016 0.241211 6.83691 0.241211 7.66309C0.241211 8.48926 0.917969 9.16602 1.74414 9.16602ZM6.32324 8.75293H18.127C18.7334 8.75293 19.2168 8.27832 19.2168 7.66309C19.2168 7.05664 18.7422 6.57324 18.127 6.57324H6.32324C5.7168 6.57324 5.2334 7.04785 5.2334 7.66309C5.2334 8.26953 5.70801 8.75293 6.32324 8.75293ZM1.74414 14.7383C2.57031 14.7383 3.24707 14.0615 3.24707 13.2354C3.24707 12.4092 2.57031 11.7236 1.74414 11.7236C0.917969 11.7236 0.241211 12.4092 0.241211 13.2354C0.241211 14.0615 0.917969 14.7383 1.74414 14.7383ZM6.32324 14.3252H18.127C18.7334 14.3252 19.2168 13.8418 19.2168 13.2354C19.2168 12.6289 18.7422 12.1455 18.127 12.1455H6.32324C5.7168 12.1455 5.2334 12.6201 5.2334 13.2354C5.2334 13.8418 5.70801 14.3252 6.32324 14.3252Z" fill="#4A4A4A"/>
</svg>
