<svg width="34" height="37" viewBox="0 0 34 37" fill="none" xmlns="http://www.w3.org/2000/svg">
<path d="M3.06055 30.0332H20.7617C20.6211 32.4062 19.1094 33.918 16.9824 33.918C14.873 33.918 13.3438 32.4062 13.2207 30.0332H10.4785C10.6191 33.4082 13.2734 36.3789 16.9824 36.3789C20.709 36.3789 23.3633 33.4258 23.5039 30.0332H30.9219C32.5742 30.0332 33.5762 29.1719 33.5762 27.9062C33.5762 26.1484 31.7832 24.5664 30.2715 23.002C29.1113 21.7891 28.7949 19.293 28.6543 17.2715C28.5312 10.3457 26.7383 5.86328 22.0625 4.17578C21.4648 1.89062 19.584 0.0625 16.9824 0.0625C14.3984 0.0625 12.5 1.89062 11.9199 4.17578C7.24414 5.86328 5.45117 10.3457 5.32812 17.2715C5.1875 19.293 4.87109 21.7891 3.71094 23.002C2.18164 24.5664 0.40625 26.1484 0.40625 27.9062C0.40625 29.1719 1.39062 30.0332 3.06055 30.0332ZM3.81641 27.3789V27.168C4.13281 26.6406 5.1875 25.6211 6.10156 24.584C7.36719 23.1777 7.96484 20.9277 8.12305 17.4824C8.26367 9.81836 10.5488 7.35742 13.5547 6.54883C13.9941 6.44336 14.2402 6.21484 14.2578 5.77539C14.3105 3.92969 15.3652 2.64648 16.9824 2.64648C18.6172 2.64648 19.6543 3.92969 19.7246 5.77539C19.7422 6.21484 19.9707 6.44336 20.4102 6.54883C23.4336 7.35742 25.7188 9.81836 25.8594 17.4824C26.0176 20.9277 26.6152 23.1777 27.8633 24.584C28.7949 25.6211 29.832 26.6406 30.1484 27.168V27.3789H3.81641Z" fill="#6E6E6E"/>
</svg>
