<svg width="23" height="23" viewBox="0 0 23 23" fill="none" xmlns="http://www.w3.org/2000/svg">
<path d="M11.8799 22.2227C17.874 22.2227 22.8369 17.249 22.8369 11.2656C22.8369 5.27148 17.8633 0.308594 11.8691 0.308594C5.88574 0.308594 0.922852 5.27148 0.922852 11.2656C0.922852 17.249 5.89648 22.2227 11.8799 22.2227ZM7.15332 16.1104C6.00391 16.1104 5.43457 15.541 5.43457 14.4238V8.6875C5.43457 7.55957 6.00391 6.99023 7.15332 6.99023H8.39941C8.81836 6.99023 8.94727 6.89355 9.19434 6.63574L9.64551 6.1416C9.91406 5.84082 10.1934 5.67969 10.752 5.67969H12.9434C13.502 5.67969 13.7812 5.84082 14.0605 6.1416L14.4902 6.63574C14.748 6.91504 14.877 6.99023 15.3066 6.99023H16.585C17.7236 6.99023 18.3037 7.55957 18.3037 8.6875V14.4238C18.3037 15.541 17.7236 16.1104 16.585 16.1104H7.15332ZM11.8047 14.585C13.5879 14.585 15.0166 13.1885 15.0166 11.3516C15.0166 9.56836 13.5879 8.13965 11.8047 8.13965C10.0215 8.13965 8.58203 9.56836 8.58203 11.3516C8.58203 13.1562 10.0215 14.585 11.8047 14.585ZM16.0264 9.92285C16.4238 9.92285 16.7568 9.60059 16.7568 9.19238C16.7461 8.78418 16.4238 8.46191 16.0264 8.46191C15.6289 8.46191 15.2959 8.78418 15.2959 9.19238C15.2959 9.60059 15.6289 9.92285 16.0264 9.92285ZM11.8047 13.6504C10.5371 13.6504 9.50586 12.6299 9.50586 11.3516C9.50586 10.084 10.5371 9.06348 11.8047 9.06348C13.0723 9.06348 14.1035 10.084 14.1035 11.3516C14.1035 12.6299 13.0723 13.6504 11.8047 13.6504Z" fill="#4A4A4A"/>
</svg>
