<svg width="68" height="33" viewBox="0 0 68 33" fill="none" xmlns="http://www.w3.org/2000/svg">
<path d="M34 16.3789C38.1836 16.3789 41.5938 12.6523 41.5938 8.11719C41.5938 3.63477 38.2363 0.0839844 34 0.0839844C29.834 0.0839844 26.4062 3.6875 26.4238 8.15234C26.4238 12.6699 29.834 16.3789 34 16.3789ZM13.75 16.7656C17.3711 16.7656 20.3418 13.5137 20.3418 9.52344C20.3418 5.62109 17.4062 2.47461 13.75 2.47461C10.1289 2.47461 7.14062 5.67383 7.1582 9.55859C7.1582 13.5312 10.1289 16.7656 13.75 16.7656ZM54.25 16.7656C57.8711 16.7656 60.8418 13.5312 60.8418 9.55859C60.8594 5.67383 57.8711 2.47461 54.25 2.47461C50.5938 2.47461 47.6582 5.62109 47.6582 9.52344C47.6582 13.5137 50.6289 16.7656 54.25 16.7656ZM34 13.7246C31.4336 13.7246 29.2539 11.2637 29.2539 8.15234C29.2363 5.09375 31.3984 2.73828 34 2.73828C36.6367 2.73828 38.7637 5.05859 38.7637 8.11719C38.7637 11.2285 36.6016 13.7246 34 13.7246ZM13.75 14.1465C11.5879 14.1465 9.77734 12.0898 9.77734 9.55859C9.77734 7.08008 11.5703 5.09375 13.75 5.09375C15.9648 5.09375 17.7402 7.04492 17.7402 9.52344C17.7402 12.0898 15.9121 14.1465 13.75 14.1465ZM54.25 14.1465C52.0879 14.1465 50.2598 12.0898 50.2598 9.52344C50.2598 7.04492 52.0352 5.09375 54.25 5.09375C56.4297 5.09375 58.2227 7.08008 58.2227 9.55859C58.2227 12.0898 56.3945 14.1465 54.25 14.1465ZM3.95898 32.8848H17.7578C16.9141 32.4102 16.2812 31.3555 16.4043 30.2832H3.53711C3.16797 30.2832 3.00977 30.1426 3.00977 29.8086C3.00977 25.4492 7.98438 21.3711 13.7324 21.3711C15.9297 21.3711 17.9336 21.8984 19.6387 22.9004C20.1836 22.1973 20.834 21.582 21.625 21.0371C19.3574 19.543 16.6328 18.7695 13.7324 18.7695C6.36719 18.7695 0.390625 24.1133 0.390625 29.9668C0.390625 31.918 1.58594 32.8848 3.95898 32.8848ZM64.041 32.8848C66.4141 32.8848 67.6094 31.918 67.6094 29.9668C67.6094 24.1133 61.6328 18.7695 54.2676 18.7695C51.3672 18.7695 48.6426 19.543 46.375 21.0371C47.166 21.582 47.8164 22.1973 48.3613 22.9004C50.0664 21.8984 52.0527 21.3711 54.2676 21.3711C60.0156 21.3711 64.9902 25.4492 64.9902 29.8086C64.9902 30.1426 64.832 30.2832 64.4629 30.2832H51.5957C51.7188 31.3555 51.0684 32.4102 50.2422 32.8848H64.041ZM22.9609 32.8848H45.0391C47.957 32.8848 49.3633 32.0059 49.3633 30.0723C49.3633 25.4668 43.5449 18.8047 34 18.8047C24.4551 18.8047 18.6367 25.4668 18.6367 30.0723C18.6367 32.0059 20.0254 32.8848 22.9609 32.8848ZM22.1172 30.2305C21.6602 30.2305 21.4668 30.1074 21.4668 29.7383C21.4668 26.8555 25.9316 21.459 34 21.459C42.0684 21.459 46.5332 26.8555 46.5332 29.7383C46.5332 30.1074 46.3398 30.2305 45.8828 30.2305H22.1172Z" fill="#6E6E6E"/>
</svg>
