<svg width="42" height="33" viewBox="0 0 42 33" fill="none" xmlns="http://www.w3.org/2000/svg">
<path d="M5.79492 32.5156H36.2051C39.8965 32.5156 41.7246 30.6875 41.7246 27.0664V5.60352C41.7246 1.98242 39.8965 0.154297 36.2051 0.154297H5.79492C2.12109 0.154297 0.275391 1.96484 0.275391 5.60352V27.0664C0.275391 30.7051 2.12109 32.5156 5.79492 32.5156ZM29.4727 16.291C28.6816 15.5879 27.7676 15.2188 26.8184 15.2188C25.8516 15.2188 24.9902 15.5527 24.1816 16.2734L16.2363 23.375L12.9844 20.4219C12.2461 19.7715 11.4375 19.4199 10.6113 19.4199C9.82031 19.4199 9.08203 19.7539 8.34375 20.4043L3.10547 25.1328V5.74414C3.10547 3.91602 4.07227 2.98438 5.83008 2.98438H36.1699C37.9102 2.98438 38.8945 3.91602 38.8945 5.74414V25.1504L29.4727 16.291ZM13.3711 16.4844C15.6387 16.4844 17.502 14.6211 17.502 12.3359C17.502 10.0684 15.6387 8.1875 13.3711 8.1875C11.0859 8.1875 9.22266 10.0684 9.22266 12.3359C9.22266 14.6211 11.0859 16.4844 13.3711 16.4844Z" fill="#6E6E6E"/>
</svg>
