<svg width="24" height="36" viewBox="0 0 24 36" fill="none" xmlns="http://www.w3.org/2000/svg">
<path d="M3.94922 35.1309H20.0508C22.6875 35.1309 23.9883 33.8125 23.9883 30.9473V18.8359C23.9883 16.3398 22.9863 15.0215 20.9473 14.7402V10.4863C20.9473 3.85938 16.6055 0.660156 12 0.660156C7.39453 0.660156 3.05273 3.85938 3.05273 10.4863V14.7402C1.01367 15.0215 0.0117188 16.3398 0.0117188 18.8359V30.9473C0.0117188 33.8125 1.3125 35.1309 3.94922 35.1309ZM5.88281 10.1172C5.88281 5.70508 8.71289 3.36719 12 3.36719C15.2871 3.36719 18.1172 5.70508 18.1172 10.1172V14.6875H5.88281V10.1172ZM4.05469 32.4941C3.24609 32.4941 2.8418 32.125 2.8418 31.1406V18.6602C2.8418 17.6758 3.24609 17.3242 4.05469 17.3242H19.9629C20.7715 17.3242 21.1582 17.6758 21.1582 18.6602V31.1406C21.1582 32.125 20.7715 32.4941 19.9629 32.4941H4.05469Z" fill="#6E6E6E"/>
</svg>
