<svg width="20" height="4" viewBox="0 0 20 4" fill="none" xmlns="http://www.w3.org/2000/svg">
<path d="M4.68359 1.95898C4.68359 0.875 3.80469 0.00585938 2.70117 0.00585938C1.62695 0.00585938 0.748047 0.875 0.748047 1.95898C0.748047 3.04297 1.62695 3.91211 2.70117 3.91211C3.80469 3.91211 4.68359 3.04297 4.68359 1.95898ZM11.9102 1.95898C11.9102 0.875 11.041 0.00585938 9.95703 0.00585938C8.88281 0.00585938 8.01367 0.875 8.01367 1.95898C8.01367 3.04297 8.88281 3.91211 9.95703 3.91211C11.041 3.91211 11.9102 3.04297 11.9102 1.95898ZM19.166 1.95898C19.166 0.875 18.2969 0.00585938 17.2129 0.00585938C16.1094 0.00585938 15.2402 0.875 15.2402 1.95898C15.2402 3.04297 16.1094 3.91211 17.2129 3.91211C18.2969 3.91211 19.166 3.04297 19.166 1.95898Z" fill="white"/>
</svg>
