<svg width="16" height="17" viewBox="0 0 16 17" fill="none" xmlns="http://www.w3.org/2000/svg">
<path d="M8.01562 0.25C6.85938 0.25 6.05469 1.0625 5.75781 2.07812C5.34375 2.21875 4.98438 2.41406 4.67969 2.66406L15.1875 13.1875C15.3203 13.0391 15.3828 12.8516 15.3828 12.625C15.3828 11.8438 14.5938 11.1406 13.9141 10.4453C13.3984 9.90625 13.2578 8.79688 13.2031 7.89844C13.1406 4.89844 12.3516 2.82812 10.2734 2.07812C9.97656 1.0625 9.16406 0.25 8.01562 0.25ZM14.8516 15.8594C15.0859 16.0938 15.4688 16.0938 15.7031 15.8594C15.9297 15.6172 15.9375 15.2422 15.7031 15.0078L1.67188 0.984375C1.4375 0.75 1.05469 0.75 0.8125 0.984375C0.585938 1.21875 0.585938 1.60938 0.8125 1.83594L14.8516 15.8594ZM1.82031 13.5703H11.25L3.10156 5.40625C2.92969 6.14844 2.84375 6.96875 2.82812 7.89844C2.76562 8.79688 2.63281 9.90625 2.11719 10.4453C1.4375 11.1406 0.640625 11.8438 0.640625 12.625C0.640625 13.1875 1.08594 13.5703 1.82031 13.5703ZM8.01562 16.6953C9.33594 16.6953 10.3047 15.7266 10.4141 14.6328H5.61719C5.71875 15.7266 6.6875 16.6953 8.01562 16.6953Z" fill="#4A4A4A"/>
</svg>
