<svg width="15" height="14" viewBox="0 0 15 14" fill="none" xmlns="http://www.w3.org/2000/svg">
<path d="M9.94922 6.875L13.6602 3.16406C14.1426 2.71875 14.1426 1.97656 13.6602 1.53125L12.8438 0.714844C12.3984 0.232422 11.6562 0.232422 11.2109 0.714844L7.5 4.42578L3.75195 0.714844C3.30664 0.232422 2.56445 0.232422 2.11914 0.714844L1.30273 1.53125C0.820312 1.97656 0.820312 2.71875 1.30273 3.16406L5.01367 6.875L1.30273 10.623C0.820312 11.0684 0.820312 11.8105 1.30273 12.2559L2.11914 13.0723C2.56445 13.5547 3.30664 13.5547 3.75195 13.0723L7.5 9.36133L11.2109 13.0723C11.6562 13.5547 12.3984 13.5547 12.8438 13.0723L13.6602 12.2559C14.1426 11.8105 14.1426 11.0684 13.6602 10.623L9.94922 6.875Z" fill="#4A4A4A"/>
</svg>
