<svg width="34" height="35" viewBox="0 0 34 35" fill="none" xmlns="http://www.w3.org/2000/svg">
<path d="M13.959 27.6445C16.8945 27.6445 19.6016 26.6953 21.8164 25.1133L30.1484 33.4453C30.5352 33.832 31.0449 34.0254 31.5898 34.0254C32.7324 34.0254 33.541 33.1465 33.541 32.0215C33.541 31.4941 33.3652 30.9844 32.9785 30.6152L24.6992 22.3184C26.4395 20.0332 27.4766 17.2031 27.4766 14.127C27.4766 6.69141 21.3945 0.609375 13.959 0.609375C6.54102 0.609375 0.441406 6.67383 0.441406 14.127C0.441406 21.5625 6.52344 27.6445 13.959 27.6445ZM13.959 24.7266C8.1582 24.7266 3.35938 19.9277 3.35938 14.127C3.35938 8.32617 8.1582 3.52734 13.959 3.52734C19.7598 3.52734 24.5586 8.32617 24.5586 14.127C24.5586 19.9277 19.7598 24.7266 13.959 24.7266Z" fill="#6E6E6E"/>
</svg>
