<svg width="36" height="31" viewBox="0 0 36 31" fill="none" xmlns="http://www.w3.org/2000/svg">
<path d="M15.8906 13.1289C18.123 13.1289 19.9863 11.6348 19.9863 9.26172C19.9863 7.01172 18.457 5.53516 16.3652 5.53516C15.293 5.53516 14.4668 5.95703 13.957 6.76562C14.502 4.26953 16.3828 2.61719 18.9316 2.51172C19.6172 2.47656 20.1094 2.00195 20.1094 1.33398C20.1094 0.525391 19.459 0.103516 18.5801 0.103516C14.625 0.103516 11.1094 3.47852 11.1094 7.92578C11.1094 11.0898 13.2188 13.1289 15.8906 13.1289ZM5.13281 13.1289C7.36523 13.1289 9.22852 11.6348 9.22852 9.26172C9.22852 7.01172 7.68164 5.53516 5.58984 5.53516C4.53516 5.53516 3.69141 5.95703 3.18164 6.76562C3.72656 4.26953 5.625 2.63477 8.17383 2.51172C8.8418 2.47656 9.35156 2.00195 9.35156 1.33398C9.35156 0.525391 8.68359 0.103516 7.80469 0.103516C3.84961 0.103516 0.333984 3.47852 0.333984 7.92578C0.333984 11.0898 2.46094 13.1289 5.13281 13.1289ZM24.4336 2.77539H34.3477C35.0859 2.77539 35.7012 2.19531 35.7012 1.43945C35.7012 0.701172 35.0859 0.121094 34.3477 0.121094H24.4336C23.6953 0.121094 23.1152 0.701172 23.1152 1.43945C23.1152 2.19531 23.6953 2.77539 24.4336 2.77539ZM24.4336 11.9863H34.3477C35.0859 11.9863 35.7012 11.4062 35.7012 10.6504C35.7012 9.91211 35.0859 9.33203 34.3477 9.33203H24.4336C23.6953 9.33203 23.1152 9.91211 23.1152 10.6504C23.1152 11.4062 23.6953 11.9863 24.4336 11.9863ZM1.59961 21.1973H34.3477C35.0859 21.1973 35.7012 20.5996 35.7012 19.8613C35.7012 19.123 35.0859 18.543 34.3477 18.543H1.59961C0.861328 18.543 0.28125 19.123 0.28125 19.8613C0.28125 20.5996 0.861328 21.1973 1.59961 21.1973ZM1.59961 30.3906H34.3477C35.0859 30.3906 35.7012 29.8105 35.7012 29.0723C35.7012 28.334 35.0859 27.7363 34.3477 27.7363H1.59961C0.861328 27.7363 0.28125 28.334 0.28125 29.0723C0.28125 29.8105 0.861328 30.3906 1.59961 30.3906Z" fill="#6E6E6E"/>
</svg>
