<svg width="16" height="17" viewBox="0 0 16 17" fill="none" xmlns="http://www.w3.org/2000/svg">
<path d="M1.83594 13.5703H14.2188C14.9531 13.5703 15.3984 13.1875 15.3984 12.625C15.3984 11.8438 14.6016 11.1406 13.9297 10.4453C13.4141 9.90625 13.2734 8.79688 13.2109 7.89844C13.1562 4.89844 12.3594 2.82812 10.2812 2.07812C9.98438 1.0625 9.17969 0.25 8.02344 0.25C6.875 0.25 6.0625 1.0625 5.77344 2.07812C3.69531 2.82812 2.89844 4.89844 2.84375 7.89844C2.78125 8.79688 2.64062 9.90625 2.125 10.4453C1.44531 11.1406 0.65625 11.8438 0.65625 12.625C0.65625 13.1875 1.09375 13.5703 1.83594 13.5703ZM8.02344 16.6953C9.35156 16.6953 10.3203 15.7266 10.4219 14.6328H5.63281C5.73438 15.7266 6.70312 16.6953 8.02344 16.6953Z" fill="#4A4A4A"/>
</svg>
