<svg width="19" height="19" viewBox="0 0 17 17" fill="none" xmlns="http://www.w3.org/2000/svg">
<path d="M8.36719 16.3281C12.7266 16.3281 16.3359 12.7109 16.3359 8.35938C16.3359 4 12.7188 0.390625 8.35938 0.390625C4.00781 0.390625 0.398438 4 0.398438 8.35938C0.398438 12.7109 4.01562 16.3281 8.36719 16.3281ZM4.60156 8.36719C4.60156 7.96094 4.88281 7.67969 5.29688 7.67969H7.67969V5.28906C7.67969 4.88281 7.95312 4.59375 8.35156 4.59375C8.75781 4.59375 9.03906 4.88281 9.03906 5.28906V7.67969H11.4375C11.8359 7.67969 12.1172 7.96094 12.1172 8.36719C12.1172 8.76562 11.8359 9.03125 11.4375 9.03125H9.03906V11.4297C9.03906 11.8281 8.75781 12.1172 8.35156 12.1172C7.95312 12.1172 7.67969 11.8281 7.67969 11.4297V9.03125H5.29688C4.89062 9.03125 4.60156 8.76562 4.60156 8.36719Z" fill="#0ECD95"/>
</svg>
