<svg width="11" height="18" viewBox="0 0 11 18" fill="none" xmlns="http://www.w3.org/2000/svg">
<path id="&#244;&#128;&#134;&#138; copy" d="M9.62109 0.564453C9.36719 0.564453 9.15234 0.662109 8.98633 0.828125L1.24219 8.39648C1.05664 8.58203 0.958984 8.80664 0.958984 9.05078C0.958984 9.30469 1.05664 9.53906 1.24219 9.70508L8.97656 17.2637C9.15234 17.4395 9.36719 17.5371 9.62109 17.5371C10.1289 17.5371 10.5098 17.1465 10.5098 16.6387C10.5098 16.4043 10.4121 16.1699 10.2559 16.0039L3.14648 9.05078L10.2559 2.09766C10.4121 1.93164 10.5098 1.70703 10.5098 1.46289C10.5098 0.955078 10.1289 0.564453 9.62109 0.564453Z" fill="#6E6E6E"/>
</svg>
