<svg width="85" height="44" viewBox="0 0 85 44" fill="none" xmlns="http://www.w3.org/2000/svg">
<mask id="path-1-inside-1" fill="white">
<rect width="80" height="44" rx="5"/>
</mask>
<rect width="80" height="44" rx="5" stroke="#EDEFF0" stroke-width="12" mask="url(#path-1-inside-1)"/>
<rect x="81" y="17" width="4" height="11" fill="#EDEFF0"/>
<rect x="7" y="7" width="49" height="30" fill="#0ECD95"/>
<path d="M35.4453 16.4375L30.7344 27H29.2188L33.9141 16.8125H27.7578V15.625H35.4453V16.4375ZM44.2188 22.1484C44.2188 23.8411 43.9297 25.099 43.3516 25.9219C42.7734 26.7448 41.8698 27.1562 40.6406 27.1562C39.4271 27.1562 38.5286 26.7552 37.9453 25.9531C37.362 25.1458 37.0599 23.9427 37.0391 22.3438V20.4141C37.0391 18.7422 37.3281 17.5 37.9062 16.6875C38.4844 15.875 39.3906 15.4688 40.625 15.4688C41.849 15.4688 42.75 15.862 43.3281 16.6484C43.9062 17.4297 44.2031 18.638 44.2188 20.2734V22.1484ZM42.7734 20.1719C42.7734 18.9479 42.6016 18.0573 42.2578 17.5C41.9141 16.9375 41.3698 16.6562 40.625 16.6562C39.8854 16.6562 39.3464 16.9349 39.0078 17.4922C38.6693 18.0495 38.4948 18.9062 38.4844 20.0625V22.375C38.4844 23.6042 38.6615 24.513 39.0156 25.1016C39.375 25.6849 39.9167 25.9766 40.6406 25.9766C41.3542 25.9766 41.8828 25.7005 42.2266 25.1484C42.5755 24.5964 42.7578 23.7266 42.7734 22.5391V20.1719ZM45.9453 17.8125C45.9453 17.1302 46.1615 16.5677 46.5938 16.125C47.0312 15.6823 47.5911 15.4609 48.2734 15.4609C48.9661 15.4609 49.526 15.6849 49.9531 16.1328C50.3854 16.5755 50.6016 17.151 50.6016 17.8594V18.4141C50.6016 19.1016 50.3828 19.6641 49.9453 20.1016C49.513 20.5339 48.9609 20.75 48.2891 20.75C47.612 20.75 47.0521 20.5339 46.6094 20.1016C46.1667 19.6641 45.9453 19.0833 45.9453 18.3594V17.8125ZM47.0234 18.4141C47.0234 18.8203 47.138 19.1562 47.3672 19.4219C47.5964 19.6823 47.9036 19.8125 48.2891 19.8125C48.6589 19.8125 48.9557 19.6849 49.1797 19.4297C49.4089 19.1745 49.5234 18.8255 49.5234 18.3828V17.8125C49.5234 17.4062 49.4115 17.0703 49.1875 16.8047C48.9635 16.5391 48.6589 16.4062 48.2734 16.4062C47.888 16.4062 47.5833 16.5391 47.3594 16.8047C47.1354 17.0703 47.0234 17.4167 47.0234 17.8438V18.4141ZM51.4844 24.2109C51.4844 23.5286 51.7005 22.9688 52.1328 22.5312C52.5703 22.0885 53.1302 21.8672 53.8125 21.8672C54.4948 21.8672 55.0547 22.0859 55.4922 22.5234C55.9297 22.9609 56.1484 23.5417 56.1484 24.2656V24.8203C56.1484 25.5026 55.9297 26.0651 55.4922 26.5078C55.0599 26.9453 54.5052 27.1641 53.8281 27.1641C53.151 27.1641 52.5911 26.9479 52.1484 26.5156C51.7057 26.0781 51.4844 25.4974 51.4844 24.7734V24.2109ZM52.5625 24.8203C52.5625 25.2318 52.6771 25.5703 52.9062 25.8359C53.1354 26.0964 53.4427 26.2266 53.8281 26.2266C54.2031 26.2266 54.5026 26.099 54.7266 25.8438C54.9505 25.5833 55.0625 25.2318 55.0625 24.7891V24.2109C55.0625 23.7995 54.9479 23.4635 54.7188 23.2031C54.4948 22.9427 54.1927 22.8125 53.8125 22.8125C53.4427 22.8125 53.1406 22.9427 52.9062 23.2031C52.6771 23.4583 52.5625 23.8047 52.5625 24.2422V24.8203ZM48.6172 26.1406L47.7969 25.625L53.3516 16.7344L54.1719 17.25L48.6172 26.1406Z" fill="#4A4A4A"/>
</svg>
