<svg width="19" height="19" viewBox="0 0 17 17" fill="none" xmlns="http://www.w3.org/2000/svg">
<path d="M8.5 16.3281C12.8594 16.3281 16.4688 12.7109 16.4688 8.35938C16.4688 4 12.8516 0.390625 8.49219 0.390625C4.14062 0.390625 0.53125 4 0.53125 8.35938C0.53125 12.7109 4.14844 16.3281 8.5 16.3281ZM6.64062 12.3516C6.39844 12.1016 6.39844 11.7109 6.64062 11.4844L9.95312 8.36719L6.64062 5.25781C6.39062 5.02344 6.39844 4.625 6.64844 4.39062C6.88281 4.16406 7.25781 4.1875 7.50781 4.42188L10.8594 7.57031C11.3203 8 11.3125 8.74219 10.8594 9.16406L7.50781 12.3203C7.28125 12.5391 6.85938 12.5547 6.64062 12.3516Z" fill="#6E6E6E"/>
</svg>
