<svg width="11" height="18" viewBox="0 0 11 18" fill="none" xmlns="http://www.w3.org/2000/svg">
<path id="&#244;&#128;&#134;&#138;" d="M1.37891 17.4355C1.63281 17.4355 1.84766 17.3379 2.01367 17.1719L9.75781 9.60352C9.94336 9.41797 10.041 9.19336 10.041 8.94922C10.041 8.69531 9.94336 8.46094 9.75781 8.29492L2.02344 0.736328C1.84766 0.560547 1.63281 0.462891 1.37891 0.462891C0.871094 0.462891 0.490234 0.853516 0.490234 1.36133C0.490234 1.5957 0.587891 1.83008 0.744141 1.99609L7.85352 8.94922L0.744141 15.9023C0.587891 16.0684 0.490234 16.293 0.490234 16.5371C0.490234 17.0449 0.871094 17.4355 1.37891 17.4355Z" fill="#6E6E6E"/>
</svg>
