<svg width="30" height="30" viewBox="0 0 30 30" fill="none" xmlns="http://www.w3.org/2000/svg">
<g clip-path="url(#clip0)">
<path d="M14.916 28.6576C22.4554 28.6576 28.6494 22.4635 28.6494 14.9102C28.6494 7.35679 22.4554 1.16274 14.902 1.16274C7.36265 1.16274 1.1686 7.35679 1.1686 14.9102C1.1686 22.4635 7.36265 28.6576 14.916 28.6576ZM14.916 27.5785C7.90918 27.5785 2.23364 21.903 2.23364 14.9102C2.23364 7.91733 7.90918 2.2418 14.902 2.2418C21.9088 2.2418 27.5844 7.91733 27.5844 14.9102C27.5844 21.903 21.9088 27.5785 14.916 27.5785ZM9.45068 17.853C9.45068 18.3015 9.78701 18.5817 10.2635 18.5817H14.4115V21.945C14.4115 22.8979 14.7479 23.7388 14.916 23.7388C15.0842 23.7388 15.4205 22.8979 15.4205 21.945V18.5817H19.5545C20.059 18.5817 20.3813 18.3015 20.3813 17.853C20.3813 16.1854 19.0781 14.5738 17.0601 13.9012L16.8219 10.2156C17.5506 9.75312 18.4194 9.08047 18.8679 8.53394C19.05 8.2957 19.1622 8.05747 19.1622 7.86128C19.1622 7.52495 18.9099 7.28672 18.4895 7.28672H11.3425C10.9501 7.28672 10.6839 7.52495 10.6839 7.86128C10.6839 8.07148 10.81 8.32373 11.0202 8.58999C11.4687 9.12251 12.3095 9.76714 13.0242 10.2156L12.7719 13.9012C10.754 14.5738 9.45068 16.1854 9.45068 17.853Z" fill="#4A4A4A"/>
</g>
<defs>
<clipPath id="clip0">
<rect width="30" height="30" fill="white"/>
</clipPath>
</defs>
</svg>
