<svg width="67" height="67" viewBox="0 0 67 67" fill="none" xmlns="http://www.w3.org/2000/svg">
<circle cx="33.5" cy="33.5" r="30.5" stroke="#FFC465" stroke-width="6"/>
<path d="M34 64C50.5685 64 64 50.3447 64 33.5C64 16.6553 50.5685 3 34 3" stroke="#FF8F8F" stroke-width="6" stroke-linecap="round" stroke-linejoin="round"/>
<path d="M23.2891 32.3125H24.4922C25.0651 32.3125 25.4896 32.1693 25.7656 31.8828C26.0417 31.5964 26.1797 31.2161 26.1797 30.7422C26.1797 30.2839 26.0417 29.9271 25.7656 29.6719C25.4948 29.4167 25.1198 29.2891 24.6406 29.2891C24.2083 29.2891 23.8464 29.4089 23.5547 29.6484C23.263 29.8828 23.1172 30.1901 23.1172 30.5703H20.8594C20.8594 29.9766 21.0182 29.4453 21.3359 28.9766C21.6589 28.5026 22.1068 28.1328 22.6797 27.8672C23.2578 27.6016 23.8932 27.4688 24.5859 27.4688C25.7891 27.4688 26.7318 27.7578 27.4141 28.3359C28.0964 28.9089 28.4375 29.7005 28.4375 30.7109C28.4375 31.2318 28.2786 31.7109 27.9609 32.1484C27.6432 32.5859 27.2266 32.9219 26.7109 33.1562C27.3516 33.3854 27.8281 33.7292 28.1406 34.1875C28.4583 34.6458 28.6172 35.1875 28.6172 35.8125C28.6172 36.8229 28.2474 37.6328 27.5078 38.2422C26.7734 38.8516 25.7995 39.1562 24.5859 39.1562C23.4505 39.1562 22.5208 38.8568 21.7969 38.2578C21.0781 37.6589 20.7188 36.8672 20.7188 35.8828H22.9766C22.9766 36.3099 23.1354 36.6589 23.4531 36.9297C23.776 37.2005 24.1719 37.3359 24.6406 37.3359C25.1771 37.3359 25.5964 37.1953 25.8984 36.9141C26.2057 36.6276 26.3594 36.25 26.3594 35.7812C26.3594 34.6458 25.7344 34.0781 24.4844 34.0781H23.2891V32.3125ZM37.9766 39H30.1797V37.4531L33.8594 33.5312C34.3646 32.9792 34.737 32.4974 34.9766 32.0859C35.2214 31.6745 35.3438 31.2839 35.3438 30.9141C35.3438 30.4089 35.2161 30.013 34.9609 29.7266C34.7057 29.4349 34.3411 29.2891 33.8672 29.2891C33.3568 29.2891 32.9531 29.4661 32.6562 29.8203C32.3646 30.1693 32.2188 30.6302 32.2188 31.2031H29.9531C29.9531 30.5104 30.1172 29.8776 30.4453 29.3047C30.7786 28.7318 31.2474 28.2839 31.8516 27.9609C32.4557 27.6328 33.1406 27.4688 33.9062 27.4688C35.0781 27.4688 35.987 27.75 36.6328 28.3125C37.2839 28.875 37.6094 29.6693 37.6094 30.6953C37.6094 31.2578 37.4635 31.8307 37.1719 32.4141C36.8802 32.9974 36.3802 33.6771 35.6719 34.4531L33.0859 37.1797H37.9766V39ZM47.1641 39H39.3672V37.4531L43.0469 33.5312C43.5521 32.9792 43.9245 32.4974 44.1641 32.0859C44.4089 31.6745 44.5312 31.2839 44.5312 30.9141C44.5312 30.4089 44.4036 30.013 44.1484 29.7266C43.8932 29.4349 43.5286 29.2891 43.0547 29.2891C42.5443 29.2891 42.1406 29.4661 41.8438 29.8203C41.5521 30.1693 41.4062 30.6302 41.4062 31.2031H39.1406C39.1406 30.5104 39.3047 29.8776 39.6328 29.3047C39.9661 28.7318 40.4349 28.2839 41.0391 27.9609C41.6432 27.6328 42.3281 27.4688 43.0938 27.4688C44.2656 27.4688 45.1745 27.75 45.8203 28.3125C46.4714 28.875 46.7969 29.6693 46.7969 30.6953C46.7969 31.2578 46.651 31.8307 46.3594 32.4141C46.0677 32.9974 45.5677 33.6771 44.8594 34.4531L42.2734 37.1797H47.1641V39Z" fill="#4A4A4A"/>
</svg>
