<svg width="67" height="67" viewBox="0 0 67 67" fill="none" xmlns="http://www.w3.org/2000/svg">
<circle cx="33.5" cy="33.5" r="30.5" stroke="#EDEFF0" stroke-width="6"/>
<path d="M34 64C50.5685 64 64 50.3447 64 33.5C64 16.6553 50.5685 3 34 3" stroke="#FFC465" stroke-width="6" stroke-linecap="round" stroke-linejoin="round"/>
<path d="M17.7578 39H16.3047V29.3672L13.3906 30.4375V29.125L17.5312 27.5703H17.7578V39ZM28.8906 30.5938C28.8906 31.1615 28.7396 31.6667 28.4375 32.1094C28.1406 32.5521 27.737 32.8984 27.2266 33.1484C27.8203 33.4036 28.2891 33.776 28.6328 34.2656C28.9818 34.7552 29.1562 35.3099 29.1562 35.9297C29.1562 36.9141 28.8229 37.6979 28.1562 38.2812C27.4948 38.8646 26.6224 39.1562 25.5391 39.1562C24.4453 39.1562 23.5677 38.8646 22.9062 38.2812C22.25 37.6927 21.9219 36.9089 21.9219 35.9297C21.9219 35.3151 22.0885 34.7604 22.4219 34.2656C22.7604 33.7708 23.2266 33.3958 23.8203 33.1406C23.3151 32.8906 22.9167 32.5443 22.625 32.1016C22.3333 31.6589 22.1875 31.1562 22.1875 30.5938C22.1875 29.6354 22.4948 28.875 23.1094 28.3125C23.724 27.75 24.5339 27.4688 25.5391 27.4688C26.5391 27.4688 27.3464 27.75 27.9609 28.3125C28.5807 28.875 28.8906 29.6354 28.8906 30.5938ZM27.7109 35.8984C27.7109 35.263 27.5078 34.7448 27.1016 34.3438C26.7005 33.9427 26.1745 33.7422 25.5234 33.7422C24.8724 33.7422 24.349 33.9401 23.9531 34.3359C23.5625 34.7318 23.3672 35.2526 23.3672 35.8984C23.3672 36.5443 23.5573 37.0521 23.9375 37.4219C24.3229 37.7917 24.8568 37.9766 25.5391 37.9766C26.2161 37.9766 26.7474 37.7917 27.1328 37.4219C27.5182 37.0469 27.7109 36.5391 27.7109 35.8984ZM25.5391 28.6562C24.9714 28.6562 24.5104 28.8333 24.1562 29.1875C23.8073 29.5365 23.6328 30.013 23.6328 30.6172C23.6328 31.1953 23.8047 31.6641 24.1484 32.0234C24.4974 32.3776 24.9609 32.5547 25.5391 32.5547C26.1172 32.5547 26.5781 32.3776 26.9219 32.0234C27.2708 31.6641 27.4453 31.1953 27.4453 30.6172C27.4453 30.0391 27.2656 29.5677 26.9062 29.2031C26.5469 28.8385 26.0911 28.6562 25.5391 28.6562ZM31.4141 39.9766H30.1719L34.9219 27.625H36.1562L31.4141 39.9766ZM39.6953 32.3125H40.8984C41.4714 32.3125 41.8958 32.1693 42.1719 31.8828C42.4479 31.5964 42.5859 31.2161 42.5859 30.7422C42.5859 30.2839 42.4479 29.9271 42.1719 29.6719C41.901 29.4167 41.526 29.2891 41.0469 29.2891C40.6146 29.2891 40.2526 29.4089 39.9609 29.6484C39.6693 29.8828 39.5234 30.1901 39.5234 30.5703H37.2656C37.2656 29.9766 37.4245 29.4453 37.7422 28.9766C38.0651 28.5026 38.513 28.1328 39.0859 27.8672C39.6641 27.6016 40.2995 27.4688 40.9922 27.4688C42.1953 27.4688 43.138 27.7578 43.8203 28.3359C44.5026 28.9089 44.8438 29.7005 44.8438 30.7109C44.8438 31.2318 44.6849 31.7109 44.3672 32.1484C44.0495 32.5859 43.6328 32.9219 43.1172 33.1562C43.7578 33.3854 44.2344 33.7292 44.5469 34.1875C44.8646 34.6458 45.0234 35.1875 45.0234 35.8125C45.0234 36.8229 44.6536 37.6328 43.9141 38.2422C43.1797 38.8516 42.2057 39.1562 40.9922 39.1562C39.8568 39.1562 38.9271 38.8568 38.2031 38.2578C37.4844 37.6589 37.125 36.8672 37.125 35.8828H39.3828C39.3828 36.3099 39.5417 36.6589 39.8594 36.9297C40.1823 37.2005 40.5781 37.3359 41.0469 37.3359C41.5833 37.3359 42.0026 37.1953 42.3047 36.9141C42.612 36.6276 42.7656 36.25 42.7656 35.7812C42.7656 34.6458 42.1406 34.0781 40.8906 34.0781H39.6953V32.3125ZM52.7109 27.5078V29.3672H52.4922C51.4714 29.3828 50.6484 29.6484 50.0234 30.1641C49.4036 30.6797 49.0312 31.3958 48.9062 32.3125C49.5104 31.6979 50.2734 31.3906 51.1953 31.3906C52.1849 31.3906 52.9714 31.7448 53.5547 32.4531C54.138 33.1615 54.4297 34.0938 54.4297 35.25C54.4297 35.9896 54.2682 36.6589 53.9453 37.2578C53.6276 37.8568 53.1745 38.3229 52.5859 38.6562C52.0026 38.9896 51.3411 39.1562 50.6016 39.1562C49.4036 39.1562 48.4349 38.7396 47.6953 37.9062C46.9609 37.0729 46.5938 35.9609 46.5938 34.5703V33.7578C46.5938 32.5234 46.8255 31.4349 47.2891 30.4922C47.7578 29.5443 48.4271 28.8125 49.2969 28.2969C50.1719 27.776 51.1849 27.513 52.3359 27.5078H52.7109ZM50.5078 33.2031C50.1432 33.2031 49.8125 33.2995 49.5156 33.4922C49.2188 33.6797 49 33.9297 48.8594 34.2422V34.9297C48.8594 35.6849 49.0078 36.276 49.3047 36.7031C49.6016 37.125 50.0182 37.3359 50.5547 37.3359C51.0391 37.3359 51.4297 37.1458 51.7266 36.7656C52.0286 36.3802 52.1797 35.8828 52.1797 35.2734C52.1797 34.6536 52.0286 34.1536 51.7266 33.7734C51.4245 33.3932 51.0182 33.2031 50.5078 33.2031Z" fill="#4A4A4A"/>
</svg>
