<svg width="30" height="30" viewBox="0 0 30 30" fill="none" xmlns="http://www.w3.org/2000/svg">
<circle cx="15" cy="15" r="13.5" stroke="#4A4A4A"/>
<path d="M23.1211 17.3594L21.6094 16.5156C21.7852 15.6719 21.7852 14.8633 21.6094 14.0195L23.1211 13.1758C23.2969 13.0703 23.3672 12.8594 23.2969 12.6836C22.9102 11.418 22.2422 10.293 21.3984 9.34375C21.2578 9.20312 21.0469 9.16797 20.8711 9.27344L19.3594 10.1172C18.7266 9.58984 18.0234 9.16797 17.25 8.88672V7.16406C17.25 6.98828 17.1094 6.8125 16.8984 6.77734C15.5977 6.46094 14.2969 6.49609 13.0664 6.77734C12.8555 6.8125 12.75 6.98828 12.75 7.16406V8.88672C11.9414 9.16797 11.2383 9.58984 10.6055 10.1523L9.09375 9.27344C8.91797 9.16797 8.70703 9.20312 8.56641 9.34375C7.72266 10.293 7.05469 11.418 6.66797 12.6836C6.59766 12.8594 6.66797 13.0703 6.84375 13.1758L8.35547 14.0195C8.21484 14.8633 8.21484 15.6719 8.35547 16.5156L6.84375 17.3594C6.66797 17.4648 6.59766 17.6758 6.66797 17.8516C7.05469 19.1172 7.72266 20.2422 8.56641 21.1914C8.70703 21.332 8.91797 21.3672 9.09375 21.2617L10.6055 20.418C11.2383 20.9453 11.9414 21.3672 12.75 21.6484V23.3711C12.75 23.5469 12.8906 23.7227 13.0664 23.793C14.3672 24.0742 15.668 24.0391 16.8984 23.793C17.1094 23.7227 17.25 23.5469 17.25 23.3711V21.6484C18.0234 21.3672 18.7266 20.9453 19.3594 20.418L20.8711 21.2617C21.0469 21.3672 21.2578 21.332 21.3984 21.1914C22.2773 20.2422 22.9102 19.1172 23.332 17.8516C23.3672 17.6758 23.2969 17.4648 23.1211 17.3594ZM15 18.0625C13.418 18.0625 12.1875 16.832 12.1875 15.25C12.1875 13.7031 13.418 12.4375 15 12.4375C16.5469 12.4375 17.8125 13.7031 17.8125 15.25C17.8125 16.832 16.5469 18.0625 15 18.0625Z" fill="#4A4A4A"/>
</svg>
