<svg width="28" height="28" viewBox="0 0 30 30" fill="none" xmlns="http://www.w3.org/2000/svg">
<g clip-path="url(#clip0)">
<circle cx="15" cy="15" r="13.5" stroke="#4A4A4A"/>
<path d="M17.2093 12.2167V20.0887C17.2093 20.2225 17.2442 20.3331 17.314 20.4204C17.3896 20.5018 17.4914 20.5542 17.6194 20.5775L18.562 20.752V22H12.706V20.752L13.6485 20.5775C13.7765 20.5542 13.8754 20.5018 13.9453 20.4204C14.0209 20.3331 14.0587 20.2225 14.0587 20.0887V14.3375C14.0587 14.2095 14.0267 14.0989 13.9627 14.0058C13.8987 13.9127 13.8027 13.8545 13.6747 13.8313L12.61 13.6131V12.3302C12.9242 12.2487 13.2587 12.176 13.6136 12.112C13.9744 12.048 14.3351 11.9956 14.6958 11.9549C15.0624 11.9142 15.4231 11.8851 15.778 11.8676C16.1387 11.8444 16.4762 11.8327 16.7904 11.8327L17.2093 12.2167ZM17.1918 9.08364C17.1918 9.56655 17.0376 9.95345 16.7293 10.2444C16.4209 10.5295 16.0078 10.672 15.49 10.672C14.9664 10.672 14.5474 10.5295 14.2333 10.2444C13.9249 9.95345 13.7707 9.56655 13.7707 9.08364C13.7707 8.61236 13.9249 8.23709 14.2333 7.95782C14.5474 7.67273 14.9664 7.53018 15.49 7.53018C16.0078 7.53018 16.4209 7.67273 16.7293 7.95782C17.0376 8.23709 17.1918 8.61236 17.1918 9.08364Z" fill="#4A4A4A"/>
</g>
<defs>
<clipPath id="clip0">
<rect width="30" height="30" fill="white"/>
</clipPath>
</defs>
</svg>
