<svg width="50" height="50" viewBox="0 0 50 50" fill="none" xmlns="http://www.w3.org/2000/svg">
<circle cx="25" cy="25" r="25" fill="#353535"/>
<path d="M35.7852 19.4023L33.9375 17.5547C33.6797 17.2969 33.293 17.125 32.9492 17.125H26.375V16.4375C26.375 16.0938 26.0312 15.75 25.6875 15.75H24.3125C23.9258 15.75 23.625 16.0938 23.625 16.4375V17.125H16.4062C15.8047 17.125 15.375 17.5977 15.375 18.1562V21.5938C15.375 22.1953 15.8047 22.625 16.4062 22.625H32.9492C33.293 22.625 33.6367 22.4961 33.9375 22.2383L35.7852 20.3906C36.043 20.1328 36.043 19.6602 35.7852 19.4023ZM23.625 37.0625C23.625 37.4492 23.9258 37.75 24.3125 37.75H25.6875C26.0312 37.75 26.375 37.4492 26.375 37.0625V32.25H23.625V37.0625ZM33.5938 25.375H26.375V24H23.625V25.375H17.0078C16.6641 25.375 16.3203 25.5469 16.0625 25.8047L14.1719 27.6523C13.9141 27.9102 13.9141 28.3828 14.1719 28.6406L16.0625 30.4883C16.3203 30.7461 16.6641 30.875 17.0078 30.875H33.5938C34.1523 30.875 34.625 30.4453 34.625 29.8438V26.4062C34.625 25.8477 34.1523 25.375 33.5938 25.375Z" fill="#60BBE9"/>
</svg>
