<svg width="50" height="50" viewBox="0 0 50 50" fill="none" xmlns="http://www.w3.org/2000/svg">
<circle cx="25" cy="25" r="25" fill="#353535"/>
<path d="M17.6582 29.7354C17.6582 35.0742 20.6123 37.4697 24.7373 37.4697C27.3691 37.4697 29.3135 36.6104 30.8711 34.9561C33.041 32.668 33.75 29.0801 34.1689 27.7266C34.502 26.6416 35.1143 25.3203 35.1143 24.6436C35.1143 24.1709 34.5342 23.8057 34.126 23.8057C33.1914 23.8057 32.8047 24.2676 32.2354 25.4277C31.6016 26.7168 30.9355 29.0586 30.3232 29.0586C29.9795 29.0586 29.8613 28.457 29.8613 27.3184V16.8662C29.8613 16.2969 29.5176 15.7705 28.7764 15.7705C28.0566 15.7705 27.6914 16.2969 27.6914 16.8662V25.4385C27.3477 25.3311 26.9502 25.2451 26.5098 25.1914V15.4375C26.5098 14.8682 26.1553 14.3525 25.4248 14.3525C24.7051 14.3525 24.3506 14.8682 24.3506 15.4375V25.1162C23.9424 25.1377 23.5557 25.1807 23.1689 25.2451V16.2754C23.1689 15.7061 22.793 15.1797 22.084 15.1797C21.3643 15.1797 20.999 15.7061 20.999 16.2754V25.8467C20.5801 26.0293 20.1826 26.2334 19.8174 26.459V19.5732C19.8174 19.0039 19.4736 18.4775 18.7539 18.4775C18.0127 18.4775 17.6582 19.0039 17.6582 19.5732V29.7354Z" fill="#EB5757"/>
</svg>
