<svg width="50" height="50" viewBox="0 0 50 50" fill="none" xmlns="http://www.w3.org/2000/svg">
<circle cx="25" cy="25" r="25" fill="#353535"/>
<path d="M21.5625 34.3008C21.5625 34.5586 21.6055 34.8164 21.7773 35.0742L22.5078 36.1484C22.7227 36.4922 23.2383 36.793 23.668 36.793H26.2891C26.7188 36.793 27.2344 36.4922 27.4492 36.1484L28.1797 35.0742C28.3086 34.8594 28.3945 34.5156 28.3945 34.3008V32.625H21.5625V34.3008ZM17.4375 22.3125C17.4375 24.2461 18.125 25.9648 19.2852 27.2969C20.0156 28.1133 21.0898 29.832 21.5195 31.25C21.5195 31.25 21.5195 31.25 21.5195 31.293H28.4375C28.4375 31.25 28.4375 31.25 28.4375 31.25C28.8672 29.832 29.9414 28.1133 30.6719 27.2969C31.832 25.9648 32.5625 24.2461 32.5625 22.3125C32.5625 18.1445 29.125 14.75 24.957 14.75C20.5742 14.793 17.4375 18.3164 17.4375 22.3125ZM25 18.875C23.0664 18.875 21.5625 20.4219 21.5625 22.3125C21.5625 22.6992 21.2188 23 20.875 23C20.4883 23 20.1875 22.6992 20.1875 22.3125C20.1875 19.6914 22.3359 17.5 25 17.5C25.3438 17.5 25.6875 17.8438 25.6875 18.1875C25.6875 18.5742 25.3438 18.875 25 18.875Z" fill="#ECAA42"/>
</svg>
