<svg width="23" height="24" viewBox="0 0 23 24" fill="none" xmlns="http://www.w3.org/2000/svg">
<path d="M2.77832 14.3096H9.02441V20.5557C9.02441 21.9141 10.1289 23.0186 11.4873 23.0186C12.8584 23.0186 13.9502 21.9141 13.9502 20.5557V14.3096H20.209C21.5674 14.3096 22.6719 13.2051 22.6719 11.8467C22.6719 10.4756 21.5674 9.38379 20.209 9.38379H13.9502V3.125C13.9502 1.7666 12.8584 0.662109 11.4873 0.662109C10.1289 0.662109 9.02441 1.7666 9.02441 3.125V9.38379H2.77832C1.41992 9.38379 0.31543 10.4756 0.31543 11.8467C0.31543 13.2051 1.41992 14.3096 2.77832 14.3096Z" fill="white"/>
</svg>
