<svg width="17" height="17" viewBox="0 0 17 17" fill="none" xmlns="http://www.w3.org/2000/svg">
<path d="M8.36719 16.3281C12.7266 16.3281 16.3359 12.7109 16.3359 8.35938C16.3359 4 12.7188 0.390625 8.35938 0.390625C4.00781 0.390625 0.398438 4 0.398438 8.35938C0.398438 12.7109 4.01562 16.3281 8.36719 16.3281ZM8.36719 15C4.67969 15 1.73438 12.0469 1.73438 8.35938C1.73438 4.67188 4.67188 1.71875 8.35938 1.71875C12.0469 1.71875 15 4.67188 15.0078 8.35938C15.0156 12.0469 12.0547 15 8.36719 15ZM8.29688 5.57812C8.86719 5.57812 9.3125 5.125 9.3125 4.5625C9.3125 3.99219 8.86719 3.53906 8.29688 3.53906C7.73438 3.53906 7.28125 3.99219 7.28125 4.5625C7.28125 5.125 7.73438 5.57812 8.29688 5.57812ZM7 12.6562H10.1797C10.5 12.6562 10.75 12.4297 10.75 12.1094C10.75 11.8047 10.5 11.5625 10.1797 11.5625H9.21094V7.58594C9.21094 7.16406 9 6.88281 8.60156 6.88281H7.13281C6.8125 6.88281 6.5625 7.125 6.5625 7.42969C6.5625 7.75 6.8125 7.97656 7.13281 7.97656H7.96875V11.5625H7C6.67969 11.5625 6.42969 11.8047 6.42969 12.1094C6.42969 12.4297 6.67969 12.6562 7 12.6562Z" fill="#4A4A4A"/>
</svg>
