<svg width="8" height="15" viewBox="0 0 8 15" fill="none" xmlns="http://www.w3.org/2000/svg">
<path d="M7.82031 7.35938C7.82031 7.16406 7.74219 6.98438 7.59375 6.84375L1.40625 0.78125C1.26562 0.648438 1.09375 0.578125 0.890625 0.578125C0.492188 0.578125 0.179688 0.882812 0.179688 1.28906C0.179688 1.48438 0.257812 1.66406 0.382812 1.79688L6.07031 7.35938L0.382812 12.9219C0.257812 13.0547 0.179688 13.2266 0.179688 13.4297C0.179688 13.8359 0.492188 14.1406 0.890625 14.1406C1.09375 14.1406 1.26562 14.0703 1.40625 13.9297L7.59375 7.875C7.74219 7.72656 7.82031 7.55469 7.82031 7.35938Z" fill="white"/>
</svg>
