<svg width="19" height="18" viewBox="0 0 19 18" fill="none" xmlns="http://www.w3.org/2000/svg">
<path d="M9.71533 17.8057C14.5381 17.8057 18.5059 13.8379 18.5059 9.01514C18.5059 4.18408 14.5381 0.216309 9.70703 0.216309C4.87598 0.216309 0.916504 4.18408 0.916504 9.01514C0.916504 13.8379 4.88428 17.8057 9.71533 17.8057ZM9.70703 6.35059C8.99316 6.35059 8.39551 5.75293 8.39551 5.03906C8.39551 4.30029 8.99316 3.71924 9.70703 3.71924C10.4209 3.71924 11.0103 4.30029 11.0103 5.03906C11.0103 5.75293 10.4209 6.35059 9.70703 6.35059ZM8.12988 13.6885C7.66504 13.6885 7.2998 13.3647 7.2998 12.875C7.2998 12.4351 7.66504 12.0781 8.12988 12.0781H9.08447V9.12305H8.2959C7.82275 9.12305 7.46582 8.79102 7.46582 8.31787C7.46582 7.86963 7.82275 7.521 8.2959 7.521H9.99756C10.5952 7.521 10.9023 7.92773 10.9023 8.55859V12.0781H11.6577C12.1226 12.0781 12.4878 12.4351 12.4878 12.875C12.4878 13.3647 12.1226 13.6885 11.6577 13.6885H8.12988Z" fill="white"/>
</svg>
