<svg width="23" height="21" viewBox="0 0 23 21" fill="none" xmlns="http://www.w3.org/2000/svg">
<path id="fod-icon" d="M6.49609 20.6816C6.97461 20.6816 7.30664 20.4277 7.90234 19.9004L11.2715 16.9023H17.541C20.4512 16.9023 22.0137 15.291 22.0137 12.4297V4.94922C22.0137 2.08789 20.4512 0.476562 17.541 0.476562H4.96289C2.05273 0.476562 0.490234 2.07812 0.490234 4.94922V12.4297C0.490234 15.3008 2.05273 16.9023 4.96289 16.9023H5.43164V19.4414C5.43164 20.1934 5.8125 20.6816 6.49609 20.6816ZM6.89648 18.8945V16.0625C6.89648 15.5352 6.69141 15.3301 6.16406 15.3301H4.96289C2.99023 15.3301 2.0625 14.3242 2.0625 12.4199V4.94922C2.0625 3.04492 2.99023 2.04883 4.96289 2.04883H17.541C19.5039 2.04883 20.4414 3.04492 20.4414 4.94922V12.4199C20.4414 14.3242 19.5039 15.3301 17.541 15.3301H11.2129C10.666 15.3301 10.3926 15.4082 10.0215 15.7891L6.89648 18.8945ZM6.28125 6.20898H16.2227C16.5352 6.20898 16.7891 5.96484 16.7891 5.64258C16.7891 5.33008 16.5352 5.08594 16.2227 5.08594H6.28125C5.96875 5.08594 5.71484 5.33008 5.71484 5.64258C5.71484 5.96484 5.96875 6.20898 6.28125 6.20898ZM6.28125 9.38281H16.2227C16.5352 9.38281 16.7891 9.13867 16.7891 8.81641C16.7891 8.51367 16.5352 8.25 16.2227 8.25H6.28125C5.96875 8.25 5.71484 8.51367 5.71484 8.81641C5.71484 9.13867 5.96875 9.38281 6.28125 9.38281ZM6.28125 12.5664H12.7461C13.0586 12.5664 13.3027 12.3223 13.3027 12.0098C13.3027 11.6875 13.0586 11.4336 12.7461 11.4336H6.28125C5.96875 11.4336 5.71484 11.6875 5.71484 12.0098C5.71484 12.3223 5.96875 12.5664 6.28125 12.5664Z" fill="#4A4A4A"/>
</svg>
