<svg width="21" height="21" viewBox="0 0 21 21" fill="none" xmlns="http://www.w3.org/2000/svg">
<path id="fod-icon" d="M10.709 20.9102C16.1582 20.9102 20.6699 16.3984 20.6699 10.9492C20.6699 5.50977 16.1484 0.988281 10.6992 0.988281C5.25977 0.988281 0.748047 5.50977 0.748047 10.9492C0.748047 16.3984 5.26953 20.9102 10.709 20.9102ZM10.709 19.25C6.09961 19.25 2.41797 15.5586 2.41797 10.9492C2.41797 6.34961 6.08984 2.64844 10.6992 2.64844C15.3086 2.64844 19 6.34961 19.0098 10.9492C19.0195 15.5586 15.3184 19.25 10.709 19.25ZM10.709 10.4023C12.125 10.4121 13.2578 9.20117 13.2578 7.60938C13.2578 6.125 12.125 4.88477 10.709 4.88477C9.29297 4.88477 8.16016 6.125 8.16016 7.60938C8.16016 9.20117 9.29297 10.3926 10.709 10.4023ZM6.16797 15.9395H15.25C15.6406 15.9395 15.8359 15.6758 15.8359 15.3242C15.8359 14.2305 14.1953 11.4082 10.709 11.4082C7.22266 11.4082 5.58203 14.2305 5.58203 15.3242C5.58203 15.6758 5.77734 15.9395 6.16797 15.9395Z" fill="#4A4A4A"/>
</svg>
