<svg width="22" height="22" viewBox="0 0 22 22" fill="none" xmlns="http://www.w3.org/2000/svg">
<path id="fod-icon" d="M12.1738 1.16406C12.1738 0.705078 11.7832 0.314453 11.3145 0.314453C10.8555 0.314453 10.4648 0.705078 10.4648 1.16406V3.21484C10.4648 3.67383 10.8555 4.06445 11.3145 4.06445C11.7832 4.06445 12.1738 3.67383 12.1738 3.21484V1.16406ZM16.1387 4.88477C15.8164 5.2168 15.8164 5.76367 16.1387 6.08594C16.4707 6.41797 17.0176 6.42773 17.3496 6.08594L18.8047 4.63086C19.1367 4.29883 19.1367 3.75195 18.8047 3.41992C18.4824 3.09766 17.9355 3.09766 17.6133 3.41992L16.1387 4.88477ZM5.2793 6.08594C5.61133 6.41797 6.1582 6.41797 6.48047 6.08594C6.8125 5.77344 6.8125 5.20703 6.49023 4.88477L5.03516 3.41992C4.72266 3.10742 4.16602 3.09766 3.83398 3.41992C3.51172 3.74219 3.51172 4.29883 3.82422 4.62109L5.2793 6.08594ZM11.3145 5.92969C8.58984 5.92969 6.33398 8.18555 6.33398 10.9102C6.33398 13.6348 8.58984 15.9004 11.3145 15.9004C14.0293 15.9004 16.2852 13.6348 16.2852 10.9102C16.2852 8.18555 14.0293 5.92969 11.3145 5.92969ZM11.3145 7.42383C13.2188 7.42383 14.8008 9.00586 14.8008 10.9102C14.8008 12.8145 13.2188 14.4062 11.3145 14.4062C9.40039 14.4062 7.81836 12.8145 7.81836 10.9102C7.81836 9.00586 9.40039 7.42383 11.3145 7.42383ZM21.0312 11.7598C21.5 11.7598 21.8906 11.3691 21.8906 10.9102C21.8906 10.4512 21.5 10.0605 21.0312 10.0605H18.9902C18.5312 10.0605 18.1406 10.4512 18.1406 10.9102C18.1406 11.3691 18.5312 11.7598 18.9902 11.7598H21.0312ZM1.59766 10.0605C1.13867 10.0605 0.748047 10.4512 0.748047 10.9102C0.748047 11.3691 1.13867 11.7598 1.59766 11.7598H3.63867C4.10742 11.7598 4.49805 11.3691 4.49805 10.9102C4.49805 10.4512 4.10742 10.0605 3.63867 10.0605H1.59766ZM17.3398 15.7441C17.0176 15.4219 16.4707 15.4219 16.1387 15.7441C15.8164 16.0664 15.8164 16.6133 16.1387 16.9453L17.6133 18.4102C17.9355 18.7324 18.4824 18.7227 18.8047 18.4004C19.1367 18.0781 19.1367 17.5312 18.8047 17.1992L17.3398 15.7441ZM3.82422 17.1895C3.50195 17.5117 3.50195 18.0684 3.81445 18.3906C4.13672 18.7129 4.69336 18.7227 5.02539 18.4004L6.48047 16.9453C6.8125 16.623 6.8125 16.0762 6.49023 15.7441C6.16797 15.4219 5.61133 15.4219 5.2793 15.7441L3.82422 17.1895ZM12.1738 18.6055C12.1738 18.1465 11.7832 17.7559 11.3145 17.7559C10.8555 17.7559 10.4648 18.1465 10.4648 18.6055V20.6562C10.4648 21.1152 10.8555 21.5059 11.3145 21.5059C11.7832 21.5059 12.1738 21.1152 12.1738 20.6562V18.6055Z" fill="#4A4A4A"/>
</svg>
