<svg width="27" height="21" viewBox="0 0 27 21" fill="none" xmlns="http://www.w3.org/2000/svg">
<mask id="path-1-outside-1" maskUnits="userSpaceOnUse" x="0" y="0" width="27" height="21" fill="black">
<rect fill="white" width="27" height="21"/>
<path fill-rule="evenodd" clip-rule="evenodd" d="M25.6875 9.82143H24.75V5.75C24.75 4.62612 23.9102 3.71429 22.875 3.71429H21.625C21.4062 3.71429 21.1953 3.76518 21 3.83728V3.03571C21 1.91183 20.1602 1 19.125 1H17.875C16.8398 1 16 1.91183 16 3.03571V9.82143H11V3.03571C11 1.91183 10.1602 1 9.125 1H7.875C6.83984 1 6 1.91183 6 3.03571V3.83728C5.80469 3.76094 5.59375 3.71429 5.375 3.71429H4.125C3.08984 3.71429 2.25 4.62612 2.25 5.75V9.82143H1.3125C1.14062 9.82143 1 9.97411 1 10.1607V10.8393C1 11.0259 1.14062 11.1786 1.3125 11.1786H2.25V15.25C2.25 16.3739 3.08984 17.2857 4.125 17.2857H5.375C5.59375 17.2857 5.80469 17.2348 6 17.1627V17.9643C6 19.0882 6.83984 20 7.875 20H9.125C10.1602 20 11 19.0882 11 17.9643V11.1786H16V17.9643C16 19.0882 16.8398 20 17.875 20H19.125C20.1602 20 21 19.0882 21 17.9643V17.1627C21.1953 17.2391 21.4062 17.2857 21.625 17.2857H22.875C23.9102 17.2857 24.75 16.3739 24.75 15.25V11.1786H25.6875C25.8594 11.1786 26 11.0259 26 10.8393V10.1607C26 9.97411 25.8594 9.82143 25.6875 9.82143ZM5.375 15.9286H4.125C3.78125 15.9286 3.5 15.6232 3.5 15.25V5.75C3.5 5.37679 3.78125 5.07143 4.125 5.07143H5.375C5.71875 5.07143 6 5.37679 6 5.75V15.25C6 15.6232 5.71875 15.9286 5.375 15.9286ZM9.125 18.6429C9.46875 18.6429 9.75 18.3375 9.75 17.9643V3.03571C9.75 2.6625 9.46875 2.35714 9.125 2.35714H7.875C7.53125 2.35714 7.25 2.6625 7.25 3.03571V17.9643C7.25 18.3375 7.53125 18.6429 7.875 18.6429H9.125ZM19.75 17.9643C19.75 18.3375 19.4688 18.6429 19.125 18.6429H17.875C17.5312 18.6429 17.25 18.3375 17.25 17.9643V3.03571C17.25 2.6625 17.5312 2.35714 17.875 2.35714H19.125C19.4688 2.35714 19.75 2.6625 19.75 3.03571V17.9643ZM22.875 15.9286C23.2188 15.9286 23.5 15.6232 23.5 15.25V5.75C23.5 5.37679 23.2188 5.07143 22.875 5.07143H21.625C21.2812 5.07143 21 5.37679 21 5.75V15.25C21 15.6232 21.2812 15.9286 21.625 15.9286H22.875Z"/>
</mask>
<path fill-rule="evenodd" clip-rule="evenodd" d="M25.6875 9.82143H24.75V5.75C24.75 4.62612 23.9102 3.71429 22.875 3.71429H21.625C21.4062 3.71429 21.1953 3.76518 21 3.83728V3.03571C21 1.91183 20.1602 1 19.125 1H17.875C16.8398 1 16 1.91183 16 3.03571V9.82143H11V3.03571C11 1.91183 10.1602 1 9.125 1H7.875C6.83984 1 6 1.91183 6 3.03571V3.83728C5.80469 3.76094 5.59375 3.71429 5.375 3.71429H4.125C3.08984 3.71429 2.25 4.62612 2.25 5.75V9.82143H1.3125C1.14062 9.82143 1 9.97411 1 10.1607V10.8393C1 11.0259 1.14062 11.1786 1.3125 11.1786H2.25V15.25C2.25 16.3739 3.08984 17.2857 4.125 17.2857H5.375C5.59375 17.2857 5.80469 17.2348 6 17.1627V17.9643C6 19.0882 6.83984 20 7.875 20H9.125C10.1602 20 11 19.0882 11 17.9643V11.1786H16V17.9643C16 19.0882 16.8398 20 17.875 20H19.125C20.1602 20 21 19.0882 21 17.9643V17.1627C21.1953 17.2391 21.4062 17.2857 21.625 17.2857H22.875C23.9102 17.2857 24.75 16.3739 24.75 15.25V11.1786H25.6875C25.8594 11.1786 26 11.0259 26 10.8393V10.1607C26 9.97411 25.8594 9.82143 25.6875 9.82143ZM5.375 15.9286H4.125C3.78125 15.9286 3.5 15.6232 3.5 15.25V5.75C3.5 5.37679 3.78125 5.07143 4.125 5.07143H5.375C5.71875 5.07143 6 5.37679 6 5.75V15.25C6 15.6232 5.71875 15.9286 5.375 15.9286ZM9.125 18.6429C9.46875 18.6429 9.75 18.3375 9.75 17.9643V3.03571C9.75 2.6625 9.46875 2.35714 9.125 2.35714H7.875C7.53125 2.35714 7.25 2.6625 7.25 3.03571V17.9643C7.25 18.3375 7.53125 18.6429 7.875 18.6429H9.125ZM19.75 17.9643C19.75 18.3375 19.4688 18.6429 19.125 18.6429H17.875C17.5312 18.6429 17.25 18.3375 17.25 17.9643V3.03571C17.25 2.6625 17.5312 2.35714 17.875 2.35714H19.125C19.4688 2.35714 19.75 2.6625 19.75 3.03571V17.9643ZM22.875 15.9286C23.2188 15.9286 23.5 15.6232 23.5 15.25V5.75C23.5 5.37679 23.2188 5.07143 22.875 5.07143H21.625C21.2812 5.07143 21 5.37679 21 5.75V15.25C21 15.6232 21.2812 15.9286 21.625 15.9286H22.875Z" fill="#4A4A4A"/>
<path d="M24.75 9.82143H24.55V10.0214H24.75V9.82143ZM21 3.83728H20.8V4.1243L21.0693 4.0249L21 3.83728ZM16 9.82143V10.0214H16.2V9.82143H16ZM11 9.82143H10.8V10.0214H11V9.82143ZM6 3.83728L5.92719 4.02355L6.2 4.13018V3.83728H6ZM2.25 9.82143V10.0214H2.45V9.82143H2.25ZM2.25 11.1786H2.45V10.9786H2.25V11.1786ZM6 17.1627H6.2V16.8757L5.93074 16.9751L6 17.1627ZM11 11.1786V10.9786H10.8V11.1786H11ZM16 11.1786H16.2V10.9786H16V11.1786ZM21 17.1627L21.0728 16.9764L20.8 16.8698V17.1627H21ZM24.75 11.1786V10.9786H24.55V11.1786H24.75ZM24.75 10.0214H25.6875V9.62143H24.75V10.0214ZM24.55 5.75V9.82143H24.95V5.75H24.55ZM22.875 3.91429C23.7845 3.91429 24.55 4.72077 24.55 5.75H24.95C24.95 4.53146 24.0358 3.51429 22.875 3.51429V3.91429ZM21.625 3.91429H22.875V3.51429H21.625V3.91429ZM21.0693 4.0249C21.2502 3.95813 21.4369 3.91429 21.625 3.91429V3.51429C21.3756 3.51429 21.1405 3.57223 20.9307 3.64965L21.0693 4.0249ZM20.8 3.03571V3.83728H21.2V3.03571H20.8ZM19.125 1.2C20.0345 1.2 20.8 2.00648 20.8 3.03571H21.2C21.2 1.81718 20.2858 0.8 19.125 0.8V1.2ZM17.875 1.2H19.125V0.8H17.875V1.2ZM16.2 3.03571C16.2 2.00648 16.9655 1.2 17.875 1.2V0.8C16.7142 0.8 15.8 1.81718 15.8 3.03571H16.2ZM16.2 9.82143V3.03571H15.8V9.82143H16.2ZM11 10.0214H16V9.62143H11V10.0214ZM10.8 3.03571V9.82143H11.2V3.03571H10.8ZM9.125 1.2C10.0345 1.2 10.8 2.00648 10.8 3.03571H11.2C11.2 1.81718 10.2858 0.8 9.125 0.8V1.2ZM7.875 1.2H9.125V0.8H7.875V1.2ZM6.2 3.03571C6.2 2.00648 6.96547 1.2 7.875 1.2V0.8C6.71422 0.8 5.8 1.81718 5.8 3.03571H6.2ZM6.2 3.83728V3.03571H5.8V3.83728H6.2ZM5.375 3.91429C5.5652 3.91429 5.75144 3.95486 5.92719 4.02355L6.07281 3.651C5.85794 3.56702 5.6223 3.51429 5.375 3.51429V3.91429ZM4.125 3.91429H5.375V3.51429H4.125V3.91429ZM2.45 5.75C2.45 4.72077 3.21547 3.91429 4.125 3.91429V3.51429C2.96422 3.51429 2.05 4.53146 2.05 5.75H2.45ZM2.45 9.82143V5.75H2.05V9.82143H2.45ZM1.3125 10.0214H2.25V9.62143H1.3125V10.0214ZM1.2 10.1607C1.2 10.0688 1.26625 10.0214 1.3125 10.0214V9.62143C1.015 9.62143 0.8 9.87945 0.8 10.1607H1.2ZM1.2 10.8393V10.1607H0.8V10.8393H1.2ZM1.3125 10.9786C1.26625 10.9786 1.2 10.9312 1.2 10.8393H0.8C0.8 11.1205 1.015 11.3786 1.3125 11.3786V10.9786ZM2.25 10.9786H1.3125V11.3786H2.25V10.9786ZM2.45 15.25V11.1786H2.05V15.25H2.45ZM4.125 17.0857C3.21547 17.0857 2.45 16.2792 2.45 15.25H2.05C2.05 16.4685 2.96422 17.4857 4.125 17.4857V17.0857ZM5.375 17.0857H4.125V17.4857H5.375V17.0857ZM5.93074 16.9751C5.74985 17.0419 5.56306 17.0857 5.375 17.0857V17.4857C5.62444 17.4857 5.85953 17.4278 6.06926 17.3503L5.93074 16.9751ZM6.2 17.9643V17.1627H5.8V17.9643H6.2ZM7.875 19.8C6.96547 19.8 6.2 18.9935 6.2 17.9643H5.8C5.8 19.1828 6.71422 20.2 7.875 20.2V19.8ZM9.125 19.8H7.875V20.2H9.125V19.8ZM10.8 17.9643C10.8 18.9935 10.0345 19.8 9.125 19.8V20.2C10.2858 20.2 11.2 19.1828 11.2 17.9643H10.8ZM10.8 11.1786V17.9643H11.2V11.1786H10.8ZM16 10.9786H11V11.3786H16V10.9786ZM16.2 17.9643V11.1786H15.8V17.9643H16.2ZM17.875 19.8C16.9655 19.8 16.2 18.9935 16.2 17.9643H15.8C15.8 19.1828 16.7142 20.2 17.875 20.2V19.8ZM19.125 19.8H17.875V20.2H19.125V19.8ZM20.8 17.9643C20.8 18.9935 20.0345 19.8 19.125 19.8V20.2C20.2858 20.2 21.2 19.1828 21.2 17.9643H20.8ZM20.8 17.1627V17.9643H21.2V17.1627H20.8ZM21.625 17.0857C21.4348 17.0857 21.2486 17.0451 21.0728 16.9764L20.9272 17.349C21.1421 17.433 21.3777 17.4857 21.625 17.4857V17.0857ZM22.875 17.0857H21.625V17.4857H22.875V17.0857ZM24.55 15.25C24.55 16.2792 23.7845 17.0857 22.875 17.0857V17.4857C24.0358 17.4857 24.95 16.4685 24.95 15.25H24.55ZM24.55 11.1786V15.25H24.95V11.1786H24.55ZM25.6875 10.9786H24.75V11.3786H25.6875V10.9786ZM25.8 10.8393C25.8 10.9312 25.7338 10.9786 25.6875 10.9786V11.3786C25.985 11.3786 26.2 11.1205 26.2 10.8393H25.8ZM25.8 10.1607V10.8393H26.2V10.1607H25.8ZM25.6875 10.0214C25.7338 10.0214 25.8 10.0688 25.8 10.1607H26.2C26.2 9.87945 25.985 9.62143 25.6875 9.62143V10.0214ZM4.125 16.1286H5.375V15.7286H4.125V16.1286ZM3.3 15.25C3.3 15.7179 3.65563 16.1286 4.125 16.1286V15.7286C3.90687 15.7286 3.7 15.5286 3.7 15.25H3.3ZM3.3 5.75V15.25H3.7V5.75H3.3ZM4.125 4.87143C3.65563 4.87143 3.3 5.28213 3.3 5.75H3.7C3.7 5.47144 3.90687 5.27143 4.125 5.27143V4.87143ZM5.375 4.87143H4.125V5.27143H5.375V4.87143ZM6.2 5.75C6.2 5.28213 5.84437 4.87143 5.375 4.87143V5.27143C5.59313 5.27143 5.8 5.47144 5.8 5.75H6.2ZM6.2 15.25V5.75H5.8V15.25H6.2ZM5.375 16.1286C5.84437 16.1286 6.2 15.7179 6.2 15.25H5.8C5.8 15.5286 5.59313 15.7286 5.375 15.7286V16.1286ZM9.55 17.9643C9.55 18.2428 9.34313 18.4429 9.125 18.4429V18.8429C9.59437 18.8429 9.95 18.4322 9.95 17.9643H9.55ZM9.55 3.03571V17.9643H9.95V3.03571H9.55ZM9.125 2.55714C9.34313 2.55714 9.55 2.75715 9.55 3.03571H9.95C9.95 2.56785 9.59437 2.15714 9.125 2.15714V2.55714ZM7.875 2.55714H9.125V2.15714H7.875V2.55714ZM7.45 3.03571C7.45 2.75715 7.65687 2.55714 7.875 2.55714V2.15714C7.40563 2.15714 7.05 2.56785 7.05 3.03571H7.45ZM7.45 17.9643V3.03571H7.05V17.9643H7.45ZM7.875 18.4429C7.65687 18.4429 7.45 18.2428 7.45 17.9643H7.05C7.05 18.4322 7.40563 18.8429 7.875 18.8429V18.4429ZM9.125 18.4429H7.875V18.8429H9.125V18.4429ZM19.125 18.8429C19.5944 18.8429 19.95 18.4322 19.95 17.9643H19.55C19.55 18.2428 19.3431 18.4429 19.125 18.4429V18.8429ZM17.875 18.8429H19.125V18.4429H17.875V18.8429ZM17.05 17.9643C17.05 18.4322 17.4056 18.8429 17.875 18.8429V18.4429C17.6569 18.4429 17.45 18.2428 17.45 17.9643H17.05ZM17.05 3.03571V17.9643H17.45V3.03571H17.05ZM17.875 2.15714C17.4056 2.15714 17.05 2.56785 17.05 3.03571H17.45C17.45 2.75715 17.6569 2.55714 17.875 2.55714V2.15714ZM19.125 2.15714H17.875V2.55714H19.125V2.15714ZM19.95 3.03571C19.95 2.56785 19.5944 2.15714 19.125 2.15714V2.55714C19.3431 2.55714 19.55 2.75715 19.55 3.03571H19.95ZM19.95 17.9643V3.03571H19.55V17.9643H19.95ZM23.3 15.25C23.3 15.5286 23.0931 15.7286 22.875 15.7286V16.1286C23.3444 16.1286 23.7 15.7179 23.7 15.25H23.3ZM23.3 5.75V15.25H23.7V5.75H23.3ZM22.875 5.27143C23.0931 5.27143 23.3 5.47144 23.3 5.75H23.7C23.7 5.28213 23.3444 4.87143 22.875 4.87143V5.27143ZM21.625 5.27143H22.875V4.87143H21.625V5.27143ZM21.2 5.75C21.2 5.47144 21.4069 5.27143 21.625 5.27143V4.87143C21.1556 4.87143 20.8 5.28213 20.8 5.75H21.2ZM21.2 15.25V5.75H20.8V15.25H21.2ZM21.625 15.7286C21.4069 15.7286 21.2 15.5286 21.2 15.25H20.8C20.8 15.7179 21.1556 16.1286 21.625 16.1286V15.7286ZM22.875 15.7286H21.625V16.1286H22.875V15.7286Z" fill="#4A4A4A" mask="url(#path-1-outside-1)"/>
</svg>
