<svg width="21" height="22" viewBox="0 0 21 22" fill="none" xmlns="http://www.w3.org/2000/svg">
<path id="fod-icon" d="M1.85742 17.1113L9.54297 21.4668C10.0898 21.7793 10.6074 21.7793 11.1641 21.4668L18.8398 17.1113C19.7383 16.5938 20.207 16.0859 20.207 14.6895V6.95508C20.207 5.93945 19.8359 5.31445 19.0156 4.83594L12.1016 0.910156C10.9199 0.236328 9.77734 0.236328 8.5957 0.910156L1.69141 4.83594C0.861328 5.31445 0.490234 5.93945 0.490234 6.95508V14.6895C0.490234 16.0859 0.96875 16.5938 1.85742 17.1113ZM14.9434 7.64844L7.375 3.37109L9.25 2.30664C10.002 1.87695 10.6953 1.86719 11.457 2.30664L17.8926 5.97852L14.9434 7.64844ZM10.3535 10.2461L2.81445 5.97852L5.83203 4.25L13.3711 8.53711L10.3535 10.2461ZM2.73633 15.8223C2.16992 15.5 1.97461 15.1777 1.97461 14.6406V7.26758L9.58203 11.6133V19.7188L2.73633 15.8223ZM17.9707 15.8223L11.1152 19.7188V11.6133L18.7227 7.26758V14.6406C18.7227 15.1777 18.5273 15.5 17.9707 15.8223Z" fill="#4A4A4A"/>
</svg>
