<svg width="21" height="22" viewBox="0 0 21 22" fill="none" xmlns="http://www.w3.org/2000/svg">
<path id="modules-fill-icon" d="M15.9297 7.36523L19.6016 5.27539C19.4551 5.12891 19.2793 5.01172 19.0645 4.89453L12.1699 0.96875C11.5742 0.626953 10.9785 0.441406 10.4023 0.441406C9.81641 0.441406 9.2207 0.626953 8.625 0.96875L6.64258 2.0918L15.9297 7.36523ZM10.4023 10.5L14.5723 8.13672L5.32422 2.85352L1.74023 4.89453C1.52539 5.01172 1.34961 5.12891 1.19336 5.27539L10.4023 10.5ZM11.0664 21.6914C11.1348 21.6719 11.1934 21.6426 11.2617 21.6035L18.9082 17.248C19.8164 16.7305 20.3047 16.2031 20.3047 14.7871V7.17969C20.3047 6.88672 20.2852 6.65234 20.2266 6.4375L11.0664 11.6719V21.6914ZM9.72852 21.6914V11.6719L0.568359 6.4375C0.509766 6.65234 0.490234 6.88672 0.490234 7.17969V14.7871C0.490234 16.2031 0.988281 16.7305 1.88672 17.248L9.54297 21.6035C9.60156 21.6426 9.66016 21.6719 9.72852 21.6914Z" fill="#6E6E6E"/>
</svg>
