<svg width="21" height="20" viewBox="0 0 21 20" fill="none" xmlns="http://www.w3.org/2000/svg">
<path id="profile-fill-icon" d="M10.709 19.9297C16.1582 19.9297 20.6699 15.4082 20.6699 9.96875C20.6699 4.51953 16.1484 0.0078125 10.6992 0.0078125C5.25977 0.0078125 0.748047 4.51953 0.748047 9.96875C0.748047 15.4082 5.26953 19.9297 10.709 19.9297ZM10.709 9.42188C9.36133 9.41211 8.28711 8.2793 8.28711 6.76562C8.28711 5.34961 9.36133 4.16797 10.709 4.16797C12.0566 4.16797 13.1309 5.34961 13.1309 6.76562C13.1309 8.2793 12.0566 9.44141 10.709 9.42188ZM6.38281 14.8613C6.00195 14.8613 5.82617 14.6074 5.82617 14.2656C5.82617 13.2207 7.38867 10.5352 10.709 10.5352C14.0293 10.5352 15.5918 13.2207 15.5918 14.2656C15.5918 14.6074 15.416 14.8613 15.0352 14.8613H6.38281Z" fill="#6E6E6E"/>
</svg>
