<svg width="23" height="21" viewBox="0 0 23 21" fill="none" xmlns="http://www.w3.org/2000/svg">
<path id="community-fill-icon" d="M6.29102 20.7402C6.67188 20.7402 6.95508 20.5449 7.41406 20.1152L10.9395 16.8926L17.541 16.9023C20.4512 16.9121 22.0137 15.291 22.0137 12.4297V4.94922C22.0137 2.08789 20.4512 0.476562 17.541 0.476562H4.96289C2.05273 0.476562 0.490234 2.07812 0.490234 4.94922V12.4297C0.490234 15.3008 2.05273 16.9023 4.96289 16.8926H5.42188V19.7344C5.42188 20.3398 5.73438 20.7402 6.29102 20.7402ZM5.7832 5.94531C5.44141 5.94531 5.1582 5.67188 5.1582 5.31055C5.1582 4.98828 5.44141 4.70508 5.7832 4.70508H16.7207C17.0625 4.70508 17.3457 4.98828 17.3457 5.31055C17.3457 5.67188 17.0625 5.94531 16.7207 5.94531H5.7832ZM5.7832 9.44141C5.44141 9.44141 5.1582 9.16797 5.1582 8.81641C5.1582 8.48438 5.44141 8.20117 5.7832 8.20117H16.7207C17.0625 8.20117 17.3457 8.48438 17.3457 8.81641C17.3457 9.16797 17.0625 9.44141 16.7207 9.44141H5.7832ZM5.7832 12.9473C5.44141 12.9473 5.1582 12.6641 5.1582 12.3223C5.1582 11.9609 5.44141 11.6973 5.7832 11.6973H12.9023C13.2344 11.6973 13.5176 11.9609 13.5176 12.3223C13.5176 12.6641 13.2344 12.9473 12.9023 12.9473H5.7832Z" fill="#6E6E6E"/>
</svg>
