<svg width="25" height="19" viewBox="0 0 25 19" fill="none" xmlns="http://www.w3.org/2000/svg">
<path id="gym-fill-icon" d="M4.0625 3.25H2.1875C1.64062 3.25 1.25 3.67969 1.25 4.1875V8.25H0.3125C0.117188 8.25 0 8.40625 0 8.5625V10.4375C0 10.6328 0.117188 10.75 0.3125 10.75H1.25V14.8125C1.25 15.3594 1.64062 15.75 2.1875 15.75H4.0625C4.57031 15.75 5 15.3594 5 14.8125V4.1875C5 3.67969 4.57031 3.25 4.0625 3.25ZM24.6875 8.25H23.75V4.1875C23.75 3.67969 23.3203 3.25 22.8125 3.25H20.9375C20.3906 3.25 20 3.67969 20 4.1875V14.8125C20 15.3594 20.3906 15.75 20.9375 15.75H22.8125C23.3203 15.75 23.75 15.3594 23.75 14.8125V10.75H24.6875C24.8438 10.75 25 10.6328 25 10.4375V8.5625C25 8.40625 24.8438 8.25 24.6875 8.25ZM17.8125 0.75H15.9375C15.3906 0.75 15 1.17969 15 1.6875V8.25H10V1.6875C10 1.17969 9.57031 0.75 9.0625 0.75H7.1875C6.64062 0.75 6.25 1.17969 6.25 1.6875V17.3125C6.25 17.8594 6.64062 18.25 7.1875 18.25H9.0625C9.57031 18.25 10 17.8594 10 17.3125V10.75H15V17.3125C15 17.8594 15.3906 18.25 15.9375 18.25H17.8125C18.3203 18.25 18.75 17.8594 18.75 17.3125V1.6875C18.75 1.17969 18.3203 0.75 17.8125 0.75Z" fill="#6E6E6E"/>
</svg>
