<svg width="121" height="132" viewBox="0 0 31 34" fill="none" xmlns="http://www.w3.org/2000/svg">
<path d="M15.5635 33.3652C23.7373 33.3652 30.5049 26.5977 30.5049 18.4238C30.5049 11.2168 25.2461 5.1084 18.3906 3.76074V1.68066C18.3906 0.640625 17.6729 0.362305 16.8818 0.933594L12.209 4.2002C11.5352 4.66895 11.5205 5.37207 12.209 5.85547L16.8672 9.13672C17.6729 9.72266 18.3906 9.44434 18.3906 8.38965V6.29492C23.9277 7.55469 28 12.4912 28 18.4238C28 25.3379 22.4775 30.875 15.5635 30.875C8.64941 30.875 3.09766 25.3379 3.1123 18.4238C3.12695 14.2637 5.14844 10.5869 8.26855 8.36035C8.86914 7.90625 9.05957 7.21777 8.69336 6.60254C8.32715 6.00195 7.52148 5.84082 6.87695 6.33887C3.1123 9.07812 0.62207 13.502 0.62207 18.4238C0.62207 26.5977 7.4043 33.3652 15.5635 33.3652ZM19.1084 24.5908C21.5254 24.5908 23.1221 22.291 23.1221 18.7754C23.1221 15.2305 21.5254 12.9014 19.1084 12.9014C16.6768 12.9014 15.0801 15.2305 15.0801 18.7754C15.0801 22.291 16.6768 24.5908 19.1084 24.5908ZM11.4619 24.415C12.0332 24.415 12.4141 24.0195 12.4141 23.4043V14.1904C12.4141 13.4727 12.0186 13.0186 11.3594 13.0186C10.9639 13.0186 10.6855 13.1504 10.1582 13.502L8.12207 14.8643C7.7998 15.0986 7.63867 15.3623 7.63867 15.7139C7.63867 16.1973 8.03418 16.6074 8.50293 16.6074C8.7666 16.6074 8.91309 16.5488 9.20605 16.3438L10.5684 15.3477V23.4043C10.5684 24.0049 10.9199 24.415 11.4619 24.415ZM19.1084 22.8184C17.8047 22.8184 16.9844 21.2803 16.9844 18.7754C16.9844 16.2266 17.79 14.6738 19.1084 14.6738C20.4121 14.6738 21.2031 16.2119 21.2031 18.7754C21.2031 21.2803 20.3975 22.8184 19.1084 22.8184Z" fill="white"/>
</svg>
