<svg width="121" height="132" viewBox="0 0 31 34" fill="none" xmlns="http://www.w3.org/2000/svg">
<path d="M15.5635 33.3652C23.7373 33.3652 30.5049 26.5977 30.5049 18.4238C30.5049 13.502 28.0146 9.07812 24.25 6.33887C23.6055 5.84082 22.7998 6.00195 22.4336 6.60254C22.0674 7.21777 22.2578 7.90625 22.8584 8.36035C25.9785 10.5869 28 14.2637 28.0146 18.4238C28.0293 25.3379 22.4775 30.875 15.5635 30.875C8.64941 30.875 3.12695 25.3379 3.12695 18.4238C3.12695 12.4912 7.19922 7.55469 12.7363 6.29492V8.4043C12.7363 9.44434 13.4541 9.72266 14.2598 9.15137L18.9326 5.87012C19.5918 5.41602 19.6064 4.71289 18.9326 4.22949L14.2744 0.948242C13.4541 0.362305 12.7363 0.640625 12.7363 1.69531V3.76074C5.88086 5.09375 0.62207 11.2168 0.62207 18.4238C0.62207 26.5977 7.4043 33.3652 15.5635 33.3652ZM19.1084 24.5908C21.54 24.5908 23.1367 22.291 23.1367 18.7754C23.1367 15.2305 21.54 12.9014 19.1084 12.9014C16.6768 12.9014 15.0801 15.2305 15.0801 18.7754C15.0801 22.291 16.6768 24.5908 19.1084 24.5908ZM11.4766 24.415C12.0479 24.415 12.4141 24.0195 12.4141 23.4043V14.1904C12.4141 13.4727 12.0332 13.0186 11.374 13.0186C10.9785 13.0186 10.7002 13.1504 10.1582 13.502L8.13672 14.8643C7.81445 15.0986 7.65332 15.3623 7.65332 15.7139C7.65332 16.1973 8.03418 16.6074 8.50293 16.6074C8.78125 16.6074 8.91309 16.5488 9.20605 16.3438L10.5684 15.3477V23.4043C10.5684 24.0049 10.9199 24.415 11.4766 24.415ZM19.1084 22.8184C17.8193 22.8184 16.9844 21.2803 16.9844 18.7754C16.9844 16.2266 17.8047 14.6738 19.1084 14.6738C20.4121 14.6738 21.2178 16.2119 21.2178 18.7754C21.2178 21.2803 20.3975 22.8184 19.1084 22.8184Z" fill="white"/>
</svg>
