<svg width="56" height="56" viewBox="0 0 56 56" fill="none" xmlns="http://www.w3.org/2000/svg">
<path d="M28.1997 55.0029C43.1851 55.0029 55.5923 42.5957 55.5923 27.6104C55.5923 12.6519 43.1582 0.217773 28.1729 0.217773C13.2144 0.217773 0.807129 12.6519 0.807129 27.6104C0.807129 42.5957 13.2412 55.0029 28.1997 55.0029ZM21.1904 37.3052C19.9551 37.3052 19.3911 36.6606 19.3911 35.667V19.5806C19.3911 18.6138 19.9551 17.9424 21.1904 17.9424H23.6343C24.8428 17.9424 25.4067 18.6138 25.4067 19.5806V35.667C25.4067 36.6606 24.8428 37.3052 23.6343 37.3052H21.1904ZM32.7651 37.3052C31.5566 37.3052 30.9658 36.6606 30.9658 35.667V19.5806C30.9658 18.6138 31.5566 17.9424 32.7651 17.9424H35.209C36.4175 17.9424 36.9814 18.6138 36.9814 19.5806V35.667C36.9814 36.6606 36.4175 37.3052 35.209 37.3052H32.7651Z" fill="white"/>
</svg>
